<?xml version="1.0" encoding="utf-8"?>
<!-- Generator: Adobe Illustrator 21.0.0, SVG Export Plug-In . SVG Version: 6.00 Build 0)  -->
<svg version="1.1" id="Capa_1" xmlns="http://www.w3.org/2000/svg" xmlns:xlink="http://www.w3.org/1999/xlink" x="0px" y="0px"
	 viewBox="0 0 570 570" style="enable-background:new 0 0 570 570;" xml:space="preserve">
<style type="text/css">
	.st0{fill:#F399CF;}
</style>
<g>
	<path class="st0" d="M469.5,442.3h-6.8V295.7c12.5-5.9,20.5-18.4,20.5-32.2v-46.7c0-15.1-12.2-27.3-27.3-27.3h-93.6
		c12.2-34,0.6-72-28.4-93.5c-29-21.5-68.7-21.5-97.7,0c-29,21.5-40.5,59.5-28.4,93.5h-93.6c-15.1,0-27.3,12.2-27.3,27.3v46.7
		c0,13.8,8,26.4,20.5,32.2v146.6h-6.8c-11.3,0-20.5,9.2-20.5,20.5v13.7c0,7.5,6.1,13.7,13.7,13.7h382.7c7.5,0,13.7-6.1,13.7-13.7
		v-13.7C490,451.5,480.8,442.3,469.5,442.3z M285,93.8c35.3,0.1,64.8,27,68,62.2c-3.3,0.7-6.6,1.8-9.6,3.4c-6.6,3.6-14.6,3.6-21.2,0
		c-3.3-1.8-7-3.1-10.7-3.7c-2.9-12.3-13.9-21-26.5-21c-12.6,0-23.6,8.7-26.5,21c-3.8,0.6-7.4,1.9-10.7,3.7c-6.6,3.6-14.6,3.6-21.2,0
		c-3-1.6-6.2-2.7-9.6-3.4C220.2,120.8,249.7,93.8,285,93.8z M285,189.5c12.2,0,22.8-8.1,26.2-19.8c1.7,0.5,3.4,1.2,5,2
		c10.5,5.5,23,5.5,33.4,0c1.1-0.6,2.2-1,3.3-1.5c-4.1,34.4-33.2,60.3-67.8,60.3s-63.7-25.9-67.8-60.3c1.1,0.4,2.1,0.9,3.3,1.5
		c10.5,5.5,23,5.5,33.4,0c1.6-0.8,3.2-1.5,5-2C262.2,181.3,272.8,189.4,285,189.5z M271.3,162.1c0-7.5,6.1-13.7,13.7-13.7
		c7.5,0,13.7,6.1,13.7,13.7c0,7.5-6.1,13.7-13.7,13.7C277.5,175.8,271.3,169.7,271.3,162.1z M100.5,216.8c0-7.5,6.1-13.7,13.7-13.7
		h99.9c6.3,11,15.1,20.3,25.7,27.3H100.5V216.8z M100.5,263.5v-19.3h293.8c3.8,0,6.8-3.1,6.8-6.8c0-3.8-3.1-6.8-6.8-6.8h-64.1
		c10.5-7,19.3-16.4,25.7-27.3h99.9c7.5,0,13.7,6.1,13.7,13.7v13.7h-47.8c-3.8,0-6.8,3.1-6.8,6.8c0,3.8,3.1,6.8,6.8,6.8h47.8v19.3
		c0.2,10.8-7.7,20.1-18.5,21.6c-5.8,0.6-11.5-1.3-15.8-5.2c-4.3-3.9-6.7-9.4-6.7-15.2c0-3.8-3.1-6.8-6.8-6.8c-3.8,0-6.8,3.1-6.8,6.8
		c0,11.3-9.2,20.5-20.5,20.5c-11.3,0-20.5-9.2-20.5-20.5c0-3.8-3.1-6.8-6.8-6.8c-3.8,0-6.8,3.1-6.8,6.8c0,11.3-9.2,20.5-20.5,20.5
		c-11.3,0-20.5-9.2-20.5-20.5c0-3.8-3.1-6.8-6.8-6.8c-3.8,0-6.8,3.1-6.8,6.8c0,11.3-9.2,20.5-20.5,20.5c-11.3,0-20.5-9.2-20.5-20.5
		c0-3.8-3.1-6.8-6.8-6.8c-3.8,0-6.8,3.1-6.8,6.8c0,11.3-9.2,20.5-20.5,20.5s-20.5-9.2-20.5-20.5c0-3.8-3.1-6.8-6.8-6.8
		s-6.8,3.1-6.8,6.8c0,11.3-9.2,20.5-20.5,20.5s-20.5-9.2-20.5-20.5c0-3.8-3.1-6.8-6.8-6.8c-3.8,0-6.8,3.1-6.8,6.8
		c0,5.8-2.4,11.3-6.7,15.2c-4.3,3.9-10,5.8-15.8,5.2C108.2,283.6,100.3,274.3,100.5,263.5z M414.8,312.5h-82
		c-7.5,0-13.7,6.1-13.7,13.7v116.2H121V298.6c10.7,0.1,20.9-4.9,27.3-13.5c6.4,8.6,16.6,13.7,27.3,13.7c10.8,0,20.9-5.1,27.3-13.7
		c6.4,8.6,16.6,13.7,27.3,13.7s20.9-5.1,27.3-13.7c6.4,8.6,16.6,13.7,27.3,13.7c10.8,0,20.9-5.1,27.3-13.7
		c6.4,8.6,16.6,13.7,27.3,13.7c10.8,0,20.9-5.1,27.3-13.7c6.4,8.6,16.6,13.7,27.3,13.7c10.8,0,20.9-5.1,27.3-13.7
		c6.4,8.6,16.6,13.6,27.3,13.5v143.7h-20.5V326.1C428.5,318.6,422.4,312.5,414.8,312.5z M414.8,326.1v116.2h-82V326.1H414.8z
		 M93.7,476.5v-13.7c0-3.8,3.1-6.8,6.8-6.8h369c3.8,0,6.8,3.1,6.8,6.8l0,13.7H93.7z"/>
	<path class="st0" d="M278.2,312.5h-123c-7.5,0-13.7,6.1-13.7,13.7V415c0,7.5,6.1,13.7,13.7,13.7h123c7.5,0,13.7-6.1,13.7-13.7
		v-88.8C291.8,318.6,285.7,312.5,278.2,312.5z M206.7,415l46.1-42.8c1.8-1.7,2.6-4.2,2-6.5c-0.5-2.4-2.3-4.3-4.6-5s-4.9-0.1-6.7,1.5
		L186.6,415h-31.5v-3.9l25.2-23.4c2.8-2.6,2.9-6.9,0.4-9.7c-2.6-2.8-6.9-2.9-9.7-0.4l-15.9,14.7v-66.3h71.4l-35.1,32.6
		c-1.8,1.7-2.6,4.2-2,6.5c0.5,2.4,2.3,4.3,4.7,5s4.9,0.1,6.7-1.5l45.9-42.6h31.5v3.9l-12.5,11.6c-2.8,2.6-2.9,6.9-0.4,9.7
		c2.6,2.8,6.9,2.9,9.7,0.4l3.2-3l0,66.3H206.7z"/>
	<path class="st0" d="M360.2,394.5h27.3c7.5,0,13.7-6.1,13.7-13.7v-27.3c0-7.5-6.1-13.7-13.7-13.7h-27.3c-7.5,0-13.7,6.1-13.7,13.7
		v27.3C346.5,388.3,352.6,394.5,360.2,394.5z M360.2,353.5h27.3v27.3l-27.3,0V353.5z"/>
	<path class="st0" d="M353.3,421.8h6.8c3.8,0,6.8-3.1,6.8-6.8c0-3.8-3.1-6.8-6.8-6.8h-6.8c-3.8,0-6.8,3.1-6.8,6.8
		C346.5,418.7,349.6,421.8,353.3,421.8z"/>
	<path class="st0" d="M244,141.6c1.8,0,3.6-0.7,4.8-2l6.8-6.8c1.8-1.7,2.5-4.3,1.9-6.6c-0.6-2.4-2.5-4.3-4.9-4.9
		c-2.4-0.6-4.9,0.1-6.6,1.9l-6.8,6.8c-2,2-2.5,4.9-1.5,7.4C238.7,140,241.2,141.6,244,141.6z"/>
	<path class="st0" d="M278.2,121.1h13.7c3.8,0,6.8-3.1,6.8-6.8c0-3.8-3.1-6.8-6.8-6.8h-13.7c-3.8,0-6.8,3.1-6.8,6.8
		C271.3,118.1,274.4,121.1,278.2,121.1z"/>
	<path class="st0" d="M321.2,139.6c2.7,2.6,6.9,2.6,9.6-0.1c2.6-2.6,2.7-6.9,0.1-9.6l-6.8-6.8c-2.7-2.6-6.9-2.6-9.6,0.1
		c-2.6,2.6-2.7,6.9-0.1,9.6L321.2,139.6z"/>
</g>
</svg>
