<?xml version="1.0" encoding="utf-8"?>
<!-- Generator: Adobe Illustrator 21.0.0, SVG Export Plug-In . SVG Version: 6.00 Build 0)  -->
<svg version="1.1" id="Capa_1" xmlns="http://www.w3.org/2000/svg" xmlns:xlink="http://www.w3.org/1999/xlink" x="0px" y="0px"
	 viewBox="0 0 570 570" style="enable-background:new 0 0 570 570;" xml:space="preserve">
<style type="text/css">
	.st0{fill:#FFC0A8;}
</style>
<path class="st0" d="M375.9,330.2c-0.4-0.4-0.8-0.8-1.2-1l-24.8-12.4c-2.4-1.2-5.3-0.7-7.2,1.2L330.5,330c0-0.1-0.1-0.2-0.1-0.3
	c-3.4-9.5-5.7-19.3-7-29.3c7.4-7.2,13.3-15.8,17.6-25.2c2.4-5.1,4.4-10.5,5.9-15.9c8.3-2,25-9.6,25-36.9c0.5-7.1-1.4-14.1-5.3-20
	c3.4-11.2,10.8-38.4,4.7-50.6c-4.3-7.1-10.1-13.1-17.1-17.5c1.7-10.3,1.3-20.8-1-30.9c-0.6-2.4-2.5-4.2-5-4.6
	c-2.4-0.4-4.9,0.6-6.2,2.7c-8.1,12.1-42.9,11-70.9,10.1c-8-0.3-15.9-0.5-23.3-0.5c-32,0-49.7,17.6-49.7,49.7
	c0.5,13.9,2.3,27.8,5.5,41.4c-4.1,5.9-6.1,13.1-5.5,20.3c0,27.2,16.5,34.8,24.9,36.9c1.5,5.4,3.5,10.8,5.9,15.9
	c4.3,9.5,10.3,18.1,17.7,25.3c-1.2,10-3.6,19.8-7,29.2c0,0.1-0.1,0.2-0.1,0.3l-12.1-12.2c-1.9-1.9-4.8-2.4-7.2-1.2l-24.8,12.4
	c-0.5,0.3-0.9,0.6-1.2,1c-31.9,3.2-56.6,29.3-58,61.3c-1.4,32,20.9,60.2,52.4,66.2c4.2,8.3,12.7,13.6,22.1,13.7h149
	c9.3,0,17.9-5.3,22.1-13.7c31.5-6,53.8-34.1,52.4-66.2S407.8,333.3,375.9,330.2L375.9,330.2z M348.3,329.8l13.1,6.6l-52.2,52.2
	l-14.3-10.8l37.6-32.2c0.1-0.1,0.1-0.1,0.2-0.2c0.1-0.1,0.1-0.1,0.2-0.1L348.3,329.8z M334.7,229.1h-24.8c-3.4,0-6.2-2.8-6.2-6.2
	v-12.4h37.2c-0.1,5.5-0.3,10.5-0.6,15.2C339.1,227.8,337,229.1,334.7,229.1z M277.1,200c-1.2-1.2-2.8-1.9-4.5-1.9h-43.3
	c-0.2-10.9,3.9-21.4,11.4-29.4c13.5-12.6,38.5-10.7,60.4-9c7.5,0.6,14.5,1.1,21.1,1.1h0c2.8,0,5.7-0.3,8.4-0.9
	c7,11.4,10.6,24.7,10.1,38.2h-43.4c-1.7,0-3.3,0.7-4.5,1.9C288,197.4,282,197.4,277.1,200L277.1,200z M229.8,225.6
	c-0.3-4.6-0.5-9.7-0.6-15.1h37.2v12.4c0,3.4-2.8,6.2-6.2,6.2h-24.8C233,229.1,230.8,227.8,229.8,225.6L229.8,225.6z M350.5,244.5
	c0.9-5,1.5-10.4,2-16.3c0.5-1.7,0.8-3.5,0.8-5.2V212c1.1-0.9,2.5-1.4,3.9-1.5c0,0,2.3,1.9,2.3,12
	C359.5,234.8,355.2,241.2,350.5,244.5L350.5,244.5z M360.2,157.4c3.2,6.3-0.9,26.4-5.3,40.9c-0.6,0.1-1.1,0.2-1.7,0.3
	c0.4-15.3-3.4-30.5-11-43.8c2-1.5,3.8-3.2,5.3-5.1c0.8-1,1.5-2.1,2.2-3.2C353.9,149.4,357.5,153.1,360.2,157.4z M247.7,123.6
	c7.3,0,15.1,0.2,22.9,0.5c27.5,0.9,55.8,1.7,72-7.2c1.3,8.7-0.4,17.6-4.9,25.2c-3.8,4.5-9.6,6.8-15.5,6.3h0
	c-6.1,0-12.9-0.5-20.1-1.1c-24.5-1.9-52.3-4-69.8,12.3c-9.5,8.8-14.5,21.6-15.4,39c-0.5-0.1-0.9-0.2-1.4-0.3
	c-2.9-12.3-4.5-24.9-5-37.5C210.5,135.4,222.3,123.6,247.7,123.6z M210.5,222.5c0-10.1,2.2-12,2.2-12c1.4,0.1,2.8,0.6,4,1.5v10.9
	c0,1.8,0.3,3.5,0.8,5.2c0.4,5.9,1.1,11.3,1.9,16.3C214.7,241.2,210.5,234.8,210.5,222.5z M240.1,269.9c-2.7-5.8-4.8-11.8-6.4-17.9
	c-0.9-3.4-1.6-7-2.2-10.9c1.3,0.3,2.5,0.4,3.8,0.4h24.8c10.3,0,18.6-8.3,18.6-18.6v-9.6c1.8-1.5,3.9-2.5,6.2-2.9
	c2.3,0.4,4.4,1.3,6.2,2.9v9.6c0,10.3,8.3,18.6,18.6,18.6h24.8c1.3,0,2.5-0.1,3.8-0.4c-0.6,3.8-1.3,7.4-2.2,10.8
	c-1.5,6.2-3.7,12.2-6.4,17.9c-10.6,22.4-25.7,33.7-44.8,33.7C265.7,303.6,250.6,292.3,240.1,269.9z M285,316
	c9.5,0,18.9-2.4,27.1-7.2c1.4,8.6,3.6,17,6.6,25.2c0.7,1.9,1.4,3.6,2.1,5.2L285,370l-35.8-30.7c0.7-1.6,1.3-3.3,2-5.2
	c3-8.2,5.2-16.6,6.6-25.2C266.1,313.6,275.5,316.1,285,316z M221.7,329.8l15.5,15.5c0.1,0.1,0.1,0.1,0.2,0.1
	c0.1,0.1,0.1,0.1,0.2,0.2l37.6,32.2l-14.3,10.8l-52.2-52.2L221.7,329.8z M198.1,446.4v-37.3c0-3.4-2.8-6.2-6.2-6.2
	c-3.4,0-6.2,2.8-6.2,6.2v35c-24-7.1-39.5-30.3-37-55.2c2.5-24.9,22.4-44.4,47.3-46.6l1-0.1l58.8,58.8c2.2,2.2,5.6,2.4,8.1,0.6
	l14.9-11.2v68.3h-68.3C203.6,458.8,198.1,453.3,198.1,446.4z M384.3,444.2v-35c0-3.4-2.8-6.2-6.2-6.2c-3.4,0-6.2,2.8-6.2,6.2v37.3
	c0,6.9-5.6,12.4-12.4,12.4h-68.3v-68.3l14.9,11.2c2.5,1.9,5.9,1.6,8.1-0.6l58.8-58.8l0.9,0.1c24.9,2.1,44.8,21.7,47.3,46.6
	C423.8,413.9,408.3,437.1,384.3,444.2z"/>
</svg>
